<svg id="Layer_1" data-name="Layer 1" xmlns="http://www.w3.org/2000/svg" viewBox="0 0 283.58 33.66"><path d="M37.09,160A12.36,12.36,0,0,1,27,165.31,12.61,12.61,0,0,1,14.84,155.2l-.05-.21H43.16a15,15,0,0,0,.12-2.41h0s0-.07,0-.11A16.56,16.56,0,0,0,27,135.68a16.8,16.8,0,0,0,0,33.59,16.21,16.21,0,0,0,14.48-9.11l.4-.82H37.49c-.15.26-.3.47-.4.62m-22.44-9.12A12.63,12.63,0,0,1,27,139.63a12.62,12.62,0,0,1,12.34,11.21l0,.19H14.63Z" transform="translate(-10.71 -135.67)" fill="#fff"/><path d="M61.56,169.28a13.78,13.78,0,0,1-5.14-1,12.26,12.26,0,0,1-4.18-2.73,12.4,12.4,0,0,1-2.8-4.24,14.74,14.74,0,0,1-.94-5.47V136.33h3.77v19.22a11.54,11.54,0,0,0,.67,4.18,9.35,9.35,0,0,0,2,3.18,8.69,8.69,0,0,0,3,2,9.23,9.23,0,0,0,3.61.72,9.45,9.45,0,0,0,3.64-.72,9,9,0,0,0,3-2,9.52,9.52,0,0,0,2-3.17,11.48,11.48,0,0,0,.82-4.18V136.33h3.76v19.55a14.63,14.63,0,0,1-1.09,5.45,12.47,12.47,0,0,1-2.81,4.24,12.78,12.78,0,0,1-4.19,2.74,14,14,0,0,1-5.14,1Z" transform="translate(-10.71 -135.67)" fill="#fff"/><path d="M80.17,168.4V149.91a16.55,16.55,0,0,1,.48-4,13.36,13.36,0,0,1,2.18-4.7,12.34,12.34,0,0,1,5-3.91,21,21,0,0,1,8.6-1.6H97v4h-.62a18.06,18.06,0,0,0-6.23.95,9.1,9.1,0,0,0-3.65,2.4,8.44,8.44,0,0,0-1.79,3.25,12.63,12.63,0,0,0-.5,3.6V168.4Z" transform="translate(-10.71 -135.67)" fill="#fff"/><path d="M157.58,168.4V151.5a9.81,9.81,0,0,0-.55-3.61,7.93,7.93,0,0,0-1.68-2.65,7.18,7.18,0,0,0-2.42-1.65,7.55,7.55,0,0,0-3-.59,7.8,7.8,0,0,0-3,.59,7.42,7.42,0,0,0-2.44,1.67,7.91,7.91,0,0,0-1.69,2.65,10,10,0,0,0-.71,3.61V168.4h-7.45V151.18a17,17,0,0,1,1.24-6.25,14.77,14.77,0,0,1,3.28-5,14.59,14.59,0,0,1,4.87-3.19,16.22,16.22,0,0,1,11.82,0,14.48,14.48,0,0,1,8.12,8.15A16.68,16.68,0,0,1,165,151.2v17.2Z" transform="translate(-10.71 -135.67)" fill="#fff"/><path d="M185,169.26a16.8,16.8,0,1,1,16.28-16.8,17,17,0,0,1-.19,2.57l0,.25H175.6l.11.35a9.76,9.76,0,0,0,9.27,6.89,9.46,9.46,0,0,0,6.23-2.34l.54-.47h7.92l-.22.45a16.19,16.19,0,0,1-14.47,9.1m0-26.86a9.76,9.76,0,0,0-9.27,6.9l-.11.35h18.75l-.11-.35a9.76,9.76,0,0,0-9.26-6.9" transform="translate(-10.71 -135.67)" fill="#fff"/><path d="M203.8,136.52v-.19h8.08c1,7.73,3.52,20,5.71,25.54,2.32-5.54,5-17.81,6-25.54h6.7c1,7.73,3.69,19.48,6.05,25.54,2.2-6.06,4.69-17.81,5.72-25.54h8v.19a155.55,155.55,0,0,1-8.37,31.88H231.68A86.26,86.26,0,0,1,227,152.63a87.43,87.43,0,0,1-4.69,15.77H212.22a123.37,123.37,0,0,1-8.42-31.88" transform="translate(-10.71 -135.67)" fill="#fff"/><path d="M253.43,167v-6.12h.34a36,36,0,0,0,8.57,1.31H264c2.62,0,4.61-.8,4.61-3.47,0-2-1.74-2.78-3.64-3.29L260,154.11c-3.63-.93-6.59-3.46-6.59-8.91,0-6.42,5.28-9.08,11.7-9.08h1.65a30.12,30.12,0,0,1,7.77,1.18v6.08h-.34a39.23,39.23,0,0,0-7.43-1H265.3c-2.32,0-4.31.47-4.31,2.79,0,1.82,1.35,2.53,3,3l4.94,1.35c4.78,1.26,7.27,4.1,7.27,9.2,0,7.1-5.11,9.76-12.21,9.76h-1.65a32.78,32.78,0,0,1-8.91-1.48" transform="translate(-10.71 -135.67)" fill="#fff"/><path d="M294.29,161.71a6.77,6.77,0,1,1-6.77-6.77,6.77,6.77,0,0,1,6.77,6.77" transform="translate(-10.71 -135.67)" fill="#fff"/><path d="M114.58,135.75A16.79,16.79,0,1,0,131,152.54a16.58,16.58,0,0,0-16.39-16.79m0,29c-6.31,0-11.45-5.48-11.45-12.21s5.14-12.22,11.45-12.22S126,145.8,126,152.54s-5.14,12.21-11.46,12.21" transform="translate(-10.71 -135.67)" fill="#fff"/></svg>