<?xml version="1.0"?>
<svg xmlns="http://www.w3.org/2000/svg" xmlns:xlink="http://www.w3.org/1999/xlink" xmlns:svgjs="http://svgjs.com/svgjs" version="1.1" width="512" height="512" x="0" y="0" viewBox="0 0 32 32" style="enable-background:new 0 0 512 512" xml:space="preserve" class=""><g><g xmlns="http://www.w3.org/2000/svg"><g><path d="m21.5927734 6h-19.5927734c-.5527344 0-1-.4472656-1-1s.4472656-1 1-1h19.5927734c.5527344 0 1 .4472656 1 1s-.4472656 1-1 1z" fill="#005587" data-original="#000000" style=""/></g><g><path d="m11.3554688 11.5h-9.3554688c-.5527344 0-1-.4472656-1-1s.4472656-1 1-1h9.3554688c.5527344 0 1 .4472656 1 1s-.4472657 1-1 1z" fill="#005587" data-original="#000000" style=""/></g><g><path d="m11.3554688 17h-9.3554688c-.5527344 0-1-.4472656-1-1s.4472656-1 1-1h9.3554688c.5527344 0 1 .4472656 1 1s-.4472657 1-1 1z" fill="#005587" data-original="#000000" style=""/></g><g><path d="m11.3554688 22.5h-9.3554688c-.5527344 0-1-.4472656-1-1s.4472656-1 1-1h9.3554688c.5527344 0 1 .4472656 1 1s-.4472657 1-1 1z" fill="#005587" data-original="#000000" style=""/></g><g><path d="m22.3847656 28h-20.3847656c-.5527344 0-1-.4472656-1-1s.4472656-1 1-1h20.3847656c.5527344 0 1 .4472656 1 1s-.4472656 1-1 1z" fill="#005587" data-original="#000000" style=""/></g><g><g><path d="m30 24.4667969c-.2558594 0-.5117188-.0976563-.7070313-.2929688l-3.7919922-3.7919922c-.390625-.390625-.390625-1.0234375 0-1.4140625s1.0234375-.390625 1.4140625 0l3.7919922 3.7919922c.390625.390625.390625 1.0234375 0 1.4140625-.1953124.1953125-.4511718.2929688-.7070312.2929688z" fill="#005587" data-original="#000000" style=""/></g><g><path d="m21.5927734 22.5820313c-1.9277344.0009766-3.8544922-.7333984-5.3212891-2.2001953-1.421875-1.421875-2.2050781-3.3115234-2.2050781-5.3222656s.7832031-3.9003906 2.2050781-5.3212891c1.4208984-1.421875 3.3105469-2.2050781 5.3212891-2.2050781s3.9003906.7832031 5.3222656 2.2050781c1.421875 1.4208984 2.2050781 3.3105469 2.2050781 5.3212891s-.7832031 3.9003906-2.2050781 5.3222656c-1.4677734 1.4667968-3.3955077 2.2001953-5.3222656 2.2001953zm0-13.0488282c-1.4755859 0-2.8632813.5751953-3.9072266 1.6191406s-1.6191406 2.4316406-1.6191406 3.9072266c0 1.4765625.5751953 2.8642578 1.6191406 3.9082031 2.1542969 2.1542969 5.6591797 2.1542969 7.8154297 0 1.0439453-1.0439453 1.6191406-2.4316406 1.6191406-3.9082031 0-1.4755859-.5751953-2.8632813-1.6191406-3.9072266-1.0439452-1.0439453-2.4316406-1.6191406-3.9082031-1.6191406z" fill="#005587" data-original="#000000" style=""/></g></g></g></g></svg>
