<svg id="Layer_1" data-name="Layer 1" xmlns="http://www.w3.org/2000/svg" viewBox="0 0 101.79 51.02"><defs><style>.cls-1{fill:#fff;}</style></defs><path class="cls-1" d="M61.87,145.7a9.44,9.44,0,0,1-7.71,4.09,9.65,9.65,0,0,1-9.29-7.72l0-.16H66.5a11.35,11.35,0,0,0,.09-1.84h0V140a12.45,12.45,0,1,0-12.44,12.82,12.39,12.39,0,0,0,11.06-6.95l.31-.62H62.17c-.1.18-.22.34-.3.46m-17.13-7a9.48,9.48,0,0,1,18.86,0l0,.15H44.72Z" transform="translate(-41.71 -127.16)"/><path class="cls-1" d="M80.56,152.81a10.67,10.67,0,0,1-3.92-.73A9.4,9.4,0,0,1,73.45,150a9.74,9.74,0,0,1-2.14-3.24,11.05,11.05,0,0,1-.71-4.17V127.66h2.88v14.68a8.9,8.9,0,0,0,.51,3.19A7.4,7.4,0,0,0,75.53,148a6.8,6.8,0,0,0,2.27,1.55,7.19,7.19,0,0,0,2.76.55,7,7,0,0,0,2.78-.55A6.84,6.84,0,0,0,85.62,148a7.07,7.07,0,0,0,1.55-2.43,8.59,8.59,0,0,0,.62-3.19V127.67h2.87v14.92a11,11,0,0,1-.83,4.17,9.55,9.55,0,0,1-5.35,5.33,10.87,10.87,0,0,1-3.92.72Z" transform="translate(-41.71 -127.16)"/><path class="cls-1" d="M94.77,152.14V138a12.88,12.88,0,0,1,.37-3.06,10,10,0,0,1,1.66-3.59,9.44,9.44,0,0,1,3.78-3,16,16,0,0,1,6.57-1.22h.48v3.07h-.47a13.61,13.61,0,0,0-4.76.73,6.9,6.9,0,0,0-2.79,1.83,6.53,6.53,0,0,0-1.37,2.48,9.83,9.83,0,0,0-.38,2.75v14.12Z" transform="translate(-41.71 -127.16)"/><path class="cls-1" d="M57.6,177.64V167a6.12,6.12,0,0,0-.34-2.27,4.91,4.91,0,0,0-1.06-1.67,4.43,4.43,0,0,0-1.52-1,4.78,4.78,0,0,0-1.88-.37,4.83,4.83,0,0,0-1.89.37,4.67,4.67,0,0,0-1.53,1,5.06,5.06,0,0,0-1.06,1.67,6.2,6.2,0,0,0-.44,2.27v10.61H43.19V166.82a10.44,10.44,0,0,1,.79-3.93A9,9,0,0,1,46,159.78a9.27,9.27,0,0,1,3.06-2,10.14,10.14,0,0,1,7.43,0,9.29,9.29,0,0,1,3.07,2,9.09,9.09,0,0,1,2,3.11,10.47,10.47,0,0,1,.67,3.94v10.81Z" transform="translate(-41.71 -127.16)"/><path class="cls-1" d="M74.82,178.18a10.56,10.56,0,1,1,10.23-10.55,12.46,12.46,0,0,1-.12,1.61l0,.16h-16l.06.21A6.15,6.15,0,0,0,74.82,174a5.9,5.9,0,0,0,3.91-1.48l.34-.29h5l-.14.28a10.17,10.17,0,0,1-9.09,5.72m0-16.87A6.15,6.15,0,0,0,69,165.64l-.06.22H80.7l-.07-.22a6.12,6.12,0,0,0-5.81-4.33" transform="translate(-41.71 -127.16)"/><path class="cls-1" d="M86.64,157.61v-.12h5.08c.62,4.86,2.21,12.56,3.59,16,1.45-3.49,3.16-11.2,3.77-16h4.22a85.67,85.67,0,0,0,3.81,16,96,96,0,0,0,3.58-16h5.06v.12a97.53,97.53,0,0,1-5.27,20h-6.32a54.34,54.34,0,0,1-3-9.91,54.88,54.88,0,0,1-3,9.91H91.92a78.77,78.77,0,0,1-5.28-20" transform="translate(-41.71 -127.16)"/><path class="cls-1" d="M117.83,176.76v-3.85H118a22.51,22.51,0,0,0,5.39.82h1c1.65,0,2.89-.5,2.89-2.18,0-1.25-1.09-1.75-2.28-2.06l-3.1-.83c-2.28-.58-4.14-2.18-4.14-5.6,0-4,3.31-5.7,7.35-5.7h1a18.82,18.82,0,0,1,4.88.74v3.82h-.21a23.88,23.88,0,0,0-4.68-.61h-.93c-1.45,0-2.7.29-2.7,1.75,0,1.14.85,1.6,1.88,1.86l3.1.85c3,.8,4.57,2.57,4.57,5.78,0,4.46-3.21,6.13-7.67,6.13h-1a20.51,20.51,0,0,1-5.6-.92" transform="translate(-41.71 -127.16)"/><path class="cls-1" d="M143.5,173.44a4.26,4.26,0,1,1-4.25-4.26,4.25,4.25,0,0,1,4.25,4.26" transform="translate(-41.71 -127.16)"/><path class="cls-1" d="M121.05,127.21A12.82,12.82,0,1,0,133.56,140a12.67,12.67,0,0,0-12.51-12.82m0,22.15c-4.82,0-8.74-4.18-8.74-9.33s3.92-9.33,8.74-9.33,8.74,4.18,8.74,9.33-3.92,9.33-8.74,9.33" transform="translate(-41.71 -127.16)"/></svg>