<?xml version="1.0"?>
<svg xmlns="http://www.w3.org/2000/svg" xmlns:xlink="http://www.w3.org/1999/xlink" xmlns:svgjs="http://svgjs.com/svgjs" version="1.1" width="512" height="512" x="0" y="0" viewBox="0 0 512.005 512.005" style="enable-background:new 0 0 512 512" xml:space="preserve" class=""><g>
<g xmlns="http://www.w3.org/2000/svg">
	<g>
		<path d="M504.509,241.989l-52.925-35.328l-1.347-6.241l28.001-56.545c2.432-5.053,2.304-11.008-0.573-15.903    c-2.816-4.864-7.875-7.997-13.44-8.351l-63.201-4.065l-4.577-4.639l-4.127-63.14c-0.256-5.601-3.456-10.685-8.32-13.501    c-4.864-2.785-10.849-2.98-15.872-0.481l-56.637,28.001l-6.369-1.695L270.013,7.493c-3.082-4.634-8.223-7.404-13.757-7.491h-0.512    c-5.504,0.087-10.639,2.857-13.727,7.491l-35.139,52.669l-6.303,1.633l-56.704-28.001c-4.992-2.493-10.977-2.304-15.872,0.481    c-4.864,2.816-7.997,7.905-8.351,13.507l-4.065,63.201l-4.577,4.577l-63.165,4.055c-5.632,0.353-10.691,3.523-13.507,8.351    c-2.816,4.895-3.005,10.88-0.512,15.933l28.001,56.673l-1.664,6.303L7.491,241.989C2.785,245.092,0,250.371,0,256.003    c0,5.632,2.816,10.911,7.521,14.013l52.639,35.139l1.633,6.303L33.792,368.1c-2.493,5.053-2.304,11.039,0.512,15.872    c2.816,4.895,7.869,8.064,13.507,8.417l63.165,4.096l4.577,4.608l4.127,63.135c0.287,5.632,3.425,10.721,8.351,13.537    c4.895,2.816,10.819,3.011,15.872,0.512l56.637-28.001l6.369,1.664l35.072,52.639c3.169,4.608,8.479,7.424,14.08,7.424    c5.632,0,10.88-2.816,14.013-7.491l35.103-52.639l6.4-1.664l56.637,27.965c4.961,2.493,11.008,2.304,15.872-0.512    c4.864-2.816,7.997-7.905,8.387-13.537l4.065-63.073l4.705-4.669l63.037-4.065c5.632-0.353,10.685-3.487,13.501-8.387    c2.816-4.895,3.01-10.813,0.512-15.872l-27.991-56.632l1.377-6.211l52.833-35.231c4.705-3.133,7.491-8.387,7.491-14.013    C512,250.34,509.215,245.092,504.509,241.989z M379.197,212.293L265.631,330.309l-35.487,35.456    c-6.497,6.559-17.183,6.559-23.68,0l-35.523-35.456L118.4,277.732c-6.528-6.497-6.528-17.121,0-23.619l23.649-23.711    c6.497-6.528,17.183-6.528,23.68,0l52.511,52.511l113.536-117.98c6.497-6.559,17.121-6.595,23.613-0.067l23.68,23.68    C385.633,195.044,385.633,205.729,379.197,212.293z" fill="#00db18" data-original="#000000" style="" class=""/>
	</g>
</g>
<g xmlns="http://www.w3.org/2000/svg">
</g>
<g xmlns="http://www.w3.org/2000/svg">
</g>
<g xmlns="http://www.w3.org/2000/svg">
</g>
<g xmlns="http://www.w3.org/2000/svg">
</g>
<g xmlns="http://www.w3.org/2000/svg">
</g>
<g xmlns="http://www.w3.org/2000/svg">
</g>
<g xmlns="http://www.w3.org/2000/svg">
</g>
<g xmlns="http://www.w3.org/2000/svg">
</g>
<g xmlns="http://www.w3.org/2000/svg">
</g>
<g xmlns="http://www.w3.org/2000/svg">
</g>
<g xmlns="http://www.w3.org/2000/svg">
</g>
<g xmlns="http://www.w3.org/2000/svg">
</g>
<g xmlns="http://www.w3.org/2000/svg">
</g>
<g xmlns="http://www.w3.org/2000/svg">
</g>
<g xmlns="http://www.w3.org/2000/svg">
</g>
</g></svg>
